<svg width="32" height="33" viewBox="0 0 32 33" fill="none" xmlns="http://www.w3.org/2000/svg">
<g clip-path="url(#clip0_7_224)">
<path fill-rule="evenodd" clip-rule="evenodd" d="M28 9.80951V28.8095C28 29.8704 27.5786 30.8878 26.8284 31.6379C26.0783 32.3881 25.0609 32.8095 24 32.8095H16V30.8095H24C24.5305 30.8095 25.0392 30.5988 25.4142 30.2237C25.7893 29.8486 26 29.3399 26 28.8095V9.80951H22C21.2044 9.80951 20.4413 9.49344 19.8787 8.93083C19.3161 8.36822 19 7.60516 19 6.80951V2.80951H8.00002C7.46959 2.80951 6.96088 3.02022 6.58581 3.3953C6.21074 3.77037 6.00002 4.27908 6.00002 4.80951V22.8095H4.00002V4.80951C4.00002 3.74864 4.42145 2.73123 5.1716 1.98108C5.92174 1.23094 6.93916 0.809509 8.00002 0.809509L19 0.809509L28 9.80951ZM6.37202 31.3895C6.23931 31.1078 6.16385 30.8026 6.15002 30.4915H7.68002C7.7078 30.6477 7.76741 30.7964 7.85515 30.9285C7.94289 31.0607 8.05688 31.1733 8.19002 31.2595C8.33002 31.3575 8.49602 31.4335 8.68802 31.4875C8.87802 31.5435 9.09202 31.5695 9.32602 31.5695C9.65402 31.5695 9.93002 31.5235 10.152 31.4295C10.356 31.3533 10.5332 31.2191 10.662 31.0435C10.7763 30.872 10.8356 30.6696 10.832 30.4635C10.8377 30.3382 10.8128 30.2133 10.7595 30.0997C10.7062 29.9862 10.6261 29.8872 10.526 29.8115C10.324 29.6515 10.016 29.5235 9.60202 29.4255L8.36402 29.1395C7.98306 29.0589 7.61854 28.9142 7.28602 28.7115C6.99282 28.5313 6.75104 28.2785 6.58402 27.9775C6.4139 27.6549 6.32921 27.2941 6.33802 26.9295C6.33802 26.4415 6.46402 26.0155 6.71802 25.6515C6.97202 25.2895 7.32402 25.0075 7.77402 24.8075C8.22202 24.6075 8.74002 24.5095 9.32602 24.5095C9.93602 24.5095 10.454 24.6095 10.886 24.8135C11.318 25.0175 11.652 25.2915 11.886 25.6335C12.126 25.9735 12.258 26.3515 12.286 26.7655H10.786C10.7518 26.5757 10.6691 26.398 10.546 26.2495C10.414 26.0897 10.2442 25.9653 10.052 25.8875C9.81793 25.7921 9.56674 25.7458 9.31402 25.7515C8.88002 25.7515 8.53802 25.8515 8.28802 26.0555C8.1708 26.1457 8.07642 26.2622 8.0125 26.3957C7.94858 26.5291 7.9169 26.6756 7.92002 26.8235C7.92002 27.0655 8.01602 27.2635 8.20602 27.4235C8.44555 27.6008 8.72272 27.7206 9.01602 27.7735L10.256 28.0595C10.692 28.1595 11.068 28.2995 11.388 28.4815C11.708 28.6615 11.958 28.9015 12.138 29.1975C12.318 29.4935 12.408 29.8675 12.408 30.3175C12.408 30.8115 12.282 31.2495 12.032 31.6295C11.7658 32.0208 11.3911 32.326 10.954 32.5075C10.486 32.7175 9.91402 32.8235 9.23802 32.8235C8.73002 32.8235 8.28602 32.7635 7.90802 32.6435C7.55973 32.539 7.23505 32.3678 6.95202 32.1395C6.70784 31.9333 6.51015 31.6777 6.37202 31.3895ZM0.164023 31.3235C0.0536682 31.0253 -0.00189088 30.7095 2.30176e-05 30.3915H1.53002C1.53358 30.5808 1.58373 30.7662 1.67602 30.9315C1.76811 31.0885 1.90139 31.2174 2.06144 31.3041C2.22148 31.3908 2.4022 31.4321 2.58402 31.4235C2.96402 31.4235 3.24402 31.3135 3.42802 31.0955C3.61202 30.8755 3.70402 30.5655 3.70402 30.1635V24.6735H5.28402V30.1235C5.28402 31.0035 5.04602 31.6715 4.57002 32.1335C4.09802 32.5935 3.44202 32.8235 2.60202 32.8235C2.2144 32.8307 1.82872 32.767 1.46402 32.6355C1.15773 32.5185 0.880142 32.3371 0.650023 32.1035C0.436759 31.8792 0.2714 31.6138 0.164023 31.3235Z" fill="#F3F3F3"/>
</g>
<defs>
<clipPath id="clip0_7_224">
<rect width="32" height="32" fill="white" transform="translate(0 0.809509)"/>
</clipPath>
</defs>
</svg>
