<svg width="32" height="33" viewBox="0 0 32 33" fill="none" xmlns="http://www.w3.org/2000/svg">
<g clip-path="url(#clip0_7_222)">
<path fill-rule="evenodd" clip-rule="evenodd" d="M28 9.90475V28.9048C28 29.9656 27.5786 30.983 26.8284 31.7332C26.0783 32.4833 25.0609 32.9048 24 32.9048H22V30.9048H24C24.5304 30.9048 25.0391 30.694 25.4142 30.319C25.7893 29.9439 26 29.4352 26 28.9048V9.90475H22C21.2044 9.90475 20.4413 9.58868 19.8787 9.02608C19.3161 8.46347 19 7.7004 19 6.90475V2.90475H8C7.46957 2.90475 6.96086 3.11547 6.58579 3.49054C6.21071 3.86561 6 4.37432 6 4.90475V22.9048H4V4.90475C4 3.84389 4.42143 2.82647 5.17157 2.07633C5.92172 1.32618 6.93913 0.904755 8 0.904755L19 0.904755L28 9.90475ZM6.794 30.5868C6.80545 30.9019 6.88272 31.2111 7.02084 31.4946C7.15897 31.7781 7.35488 32.0295 7.596 32.2328C7.856 32.4488 8.174 32.6168 8.552 32.7368C8.932 32.8588 9.374 32.9188 9.882 32.9188C10.558 32.9188 11.13 32.8128 11.6 32.6028C12.072 32.3928 12.432 32.0988 12.678 31.7228C12.928 31.3448 13.052 30.9068 13.052 30.4108C13.052 29.9628 12.962 29.5908 12.784 29.2908C12.6009 28.9911 12.3423 28.7449 12.034 28.5768C11.6797 28.381 11.2982 28.2395 10.902 28.1568L9.66 27.8688C9.36723 27.815 9.09076 27.6945 8.852 27.5168C8.76075 27.4464 8.68719 27.3557 8.63719 27.2519C8.58719 27.148 8.56213 27.034 8.564 26.9188C8.564 26.6068 8.688 26.3508 8.934 26.1508C9.184 25.9488 9.526 25.8468 9.958 25.8468C10.244 25.8468 10.49 25.8928 10.698 25.9828C10.8895 26.0608 11.0585 26.1852 11.19 26.3448C11.3131 26.4932 11.3958 26.671 11.43 26.8608H12.93C12.905 26.4535 12.7665 26.0613 12.53 25.7288C12.2772 25.3698 11.9315 25.0863 11.53 24.9088C11.0389 24.6933 10.5061 24.5895 9.97 24.6048C9.384 24.6048 8.868 24.7048 8.418 24.9048C7.968 25.1028 7.618 25.3848 7.364 25.7468C7.11 26.1108 6.984 26.5368 6.984 27.0248C6.984 27.4268 7.064 27.7768 7.228 28.0728C7.392 28.3708 7.628 28.6128 7.932 28.8068C8.236 28.9968 8.596 29.1408 9.01 29.2328L10.246 29.5208C10.66 29.6188 10.968 29.7468 11.172 29.9068C11.2717 29.9827 11.3514 30.0817 11.4044 30.1953C11.4573 30.3089 11.4819 30.4336 11.476 30.5588C11.4799 30.7649 11.4205 30.9673 11.306 31.1388C11.1772 31.3143 11 31.4485 10.796 31.5248C10.574 31.6188 10.298 31.6648 9.97 31.6648C9.736 31.6648 9.524 31.6388 9.33 31.5848C9.15319 31.5358 8.98563 31.4581 8.834 31.3548C8.70085 31.2686 8.58687 31.1559 8.49913 31.0238C8.41139 30.8917 8.35178 30.7429 8.324 30.5868H6.794ZM1.612 28.2908C1.612 27.7948 1.68 27.3708 1.816 27.0248C1.93463 26.7052 2.14469 26.4277 2.42 26.2268C2.7006 26.0391 3.03259 25.9434 3.37 25.9528C3.67 25.9528 3.936 26.0168 4.166 26.1468C4.39139 26.2672 4.57952 26.447 4.71 26.6668C4.84939 26.8981 4.93167 27.1593 4.95 27.4288H6.48V27.2848C6.46673 26.9163 6.37703 26.5547 6.21659 26.2228C6.05615 25.8909 5.82847 25.596 5.548 25.3568C5.26068 25.1133 4.92841 24.9284 4.57 24.8128C4.17973 24.6806 3.77002 24.615 3.358 24.6188C2.646 24.6188 2.038 24.7668 1.536 25.0648C1.036 25.3608 0.656 25.7828 0.392 26.3288C0.132 26.8768 0 27.5288 0 28.2868V29.2828C0 30.0408 0.128 30.6908 0.386 31.2348C0.648 31.7768 1.03 32.1948 1.53 32.4868C2.03 32.7768 2.638 32.9208 3.358 32.9208C3.944 32.9208 4.466 32.8108 4.928 32.5928C5.388 32.3728 5.756 32.0728 6.028 31.6848C6.30392 31.2876 6.46073 30.82 6.48 30.3368V30.1848H4.952C4.93314 30.4423 4.85216 30.6914 4.716 30.9108C4.58271 31.1231 4.39484 31.2958 4.172 31.4108C3.92226 31.5316 3.64735 31.5912 3.37 31.5848C3.0321 31.5943 2.69909 31.5024 2.414 31.3208C2.14013 31.1257 1.93166 30.8524 1.816 30.5368C1.66977 30.1353 1.60056 29.7099 1.612 29.2828V28.2928V28.2908ZM13.56 31.4848C13.4273 31.2031 13.3518 30.8978 13.338 30.5868H14.866C14.8938 30.7429 14.9534 30.8917 15.0411 31.0238C15.1289 31.1559 15.2429 31.2686 15.376 31.3548C15.516 31.4528 15.684 31.5288 15.876 31.5828C16.066 31.6388 16.278 31.6648 16.514 31.6648C16.842 31.6648 17.116 31.6188 17.34 31.5248C17.544 31.4485 17.7212 31.3143 17.85 31.1388C17.9643 30.9672 18.0236 30.7649 18.02 30.5588C18.0257 30.4334 18.0008 30.3086 17.9475 30.195C17.8942 30.0814 17.814 29.9825 17.714 29.9068C17.512 29.7468 17.202 29.6188 16.788 29.5208L15.552 29.2348C15.171 29.1541 14.8065 29.0094 14.474 28.8068C14.1807 28.6266 13.9389 28.3738 13.772 28.0728C13.6019 27.7502 13.5172 27.3894 13.526 27.0248C13.526 26.5368 13.652 26.1108 13.906 25.7468C14.16 25.3848 14.512 25.1028 14.96 24.9028C15.41 24.7028 15.928 24.6048 16.514 24.6048C17.122 24.6048 17.642 24.7048 18.072 24.9088C18.506 25.1128 18.84 25.3868 19.072 25.7288C19.312 26.0688 19.446 26.4468 19.472 26.8608H17.972C17.9378 26.671 17.8551 26.4932 17.732 26.3448C17.6005 26.1852 17.4315 26.0608 17.24 25.9828C17.0053 25.8871 16.7534 25.8408 16.5 25.8468C16.068 25.8468 15.726 25.9468 15.476 26.1508C15.3588 26.241 15.2644 26.3575 15.2005 26.4909C15.1366 26.6243 15.1049 26.7709 15.108 26.9188C15.108 27.1608 15.202 27.3588 15.394 27.5188C15.6329 27.6958 15.9094 27.8156 16.202 27.8688L17.444 28.1548C17.878 28.2548 18.256 28.3948 18.576 28.5768C18.896 28.7568 19.146 28.9968 19.326 29.2928C19.506 29.5888 19.596 29.9628 19.596 30.4128C19.596 30.9068 19.47 31.3448 19.22 31.7248C18.9538 32.1161 18.5791 32.4212 18.142 32.6028C17.674 32.8128 17.102 32.9188 16.426 32.9188C15.918 32.9188 15.474 32.8588 15.096 32.7388C14.7477 32.6342 14.423 32.4631 14.14 32.2348C13.8958 32.0286 13.6981 31.773 13.56 31.4848Z" fill="#F3F3F3"/>
</g>
<defs>
<clipPath id="clip0_7_222">
<rect width="32" height="32" fill="white" transform="translate(0 0.904755)"/>
</clipPath>
</defs>
</svg>
