<svg width="33" height="33" viewBox="0 0 33 33" fill="none" xmlns="http://www.w3.org/2000/svg">
<g clip-path="url(#clip0_7_214)">
<path fill-rule="evenodd" clip-rule="evenodd" d="M28.5635 9.19048V22.1905H26.5635V9.19048H22.5635C21.7678 9.19048 21.0048 8.87441 20.4422 8.3118C19.8795 7.74919 19.5635 6.98613 19.5635 6.19048V2.19048H8.56348C8.03304 2.19048 7.52434 2.40119 7.14926 2.77626C6.77419 3.15134 6.56348 3.66004 6.56348 4.19048V22.1905H4.56348V4.19048C4.56348 3.12961 4.9849 2.11219 5.73505 1.36205C6.48519 0.611903 7.50261 0.190475 8.56348 0.190475L19.5635 0.190475L28.5635 9.19048ZM9.09148 23.8905V31.8885H7.50948V28.4605H4.14348V31.8885H2.56348V23.8905H4.14548V27.1425H7.50948V23.8905H9.08948H9.09148ZM13.5935 25.2145V31.8885H12.0055V25.2145H9.73948V23.8905H15.8675V25.2145H13.5935ZM17.9455 31.8885V26.5685H18.0215L19.9255 30.8865H20.9575L22.8495 26.5665H22.9255V31.8885H24.3555V23.8905H22.7555L20.4755 29.0825H20.4235L18.1435 23.8905H16.5335V31.8885H17.9455ZM27.3655 30.5405H30.7575V31.8885H25.7835V23.8905H27.3635V30.5405H27.3655Z" fill="#F3F3F3"/>
</g>
<defs>
<clipPath id="clip0_7_214">
<rect width="32" height="32" fill="white" transform="translate(0.563477 0.190475)"/>
</clipPath>
</defs>
</svg>
