<svg width="32" height="33" viewBox="0 0 32 33" fill="none" xmlns="http://www.w3.org/2000/svg">
<g clip-path="url(#clip0_5_143)">
<path d="M16 0.615387C7.16 0.615387 0 7.77539 0 16.6154C0 23.6954 4.58 29.6754 10.94 31.7954C11.74 31.9354 12.04 31.4554 12.04 31.0354C12.04 30.6554 12.02 29.3954 12.02 28.0554C8 28.7954 6.96 27.0754 6.64 26.1754C6.46 25.7154 5.68 24.2954 5 23.9154C4.44 23.6154 3.64 22.8754 4.98 22.8554C6.24 22.8354 7.14 24.0154 7.44 24.4954C8.88 26.9154 11.18 26.2354 12.1 25.8154C12.24 24.7754 12.66 24.0754 13.12 23.6754C9.56 23.2754 5.84 21.8954 5.84 15.7754C5.84 14.0354 6.46 12.5954 7.48 11.4754C7.32 11.0754 6.76 9.43539 7.64 7.23539C7.64 7.23539 8.98 6.81539 12.04 8.87539C13.32 8.51539 14.68 8.33539 16.04 8.33539C17.4 8.33539 18.76 8.51539 20.04 8.87539C23.1 6.79539 24.44 7.23539 24.44 7.23539C25.32 9.43539 24.76 11.0754 24.6 11.4754C25.62 12.5954 26.24 14.0154 26.24 15.7754C26.24 21.9154 22.5 23.2754 18.94 23.6754C19.52 24.1754 20.02 25.1354 20.02 26.6354C20.02 28.7754 20 30.4954 20 31.0354C20 31.4554 20.3 31.9554 21.1 31.7954C24.2765 30.7234 27.0367 28.6821 28.9921 25.9589C30.9474 23.2357 31.9994 19.9679 32 16.6154C32 7.77539 24.84 0.615387 16 0.615387Z" fill="#F3F3F3"/>
</g>
<defs>
<clipPath id="clip0_5_143">
<rect width="32" height="32" fill="white" transform="translate(0 0.615387)"/>
</clipPath>
</defs>
</svg>
