<svg width="50" height="50" viewBox="0 0 50 50" fill="none" xmlns="http://www.w3.org/2000/svg">
<path d="M28.06 12.495H25C25 19.3978 30.5999 25 37.4999 25C44.4 25 50 19.3978 50 12.495H46.94C46.94 10.8043 48.31 9.43374 50 9.43374V7.78313C47.4 7.78313 45.28 9.90395 45.28 12.505L43.04 12.505C43.04 8.66351 46.16 5.54222 50 5.54222L50 3.89151C45.25 3.89151 41.39 7.75305 41.39 12.505H39.15C39.15 6.52257 44.02 1.65071 50 1.65071V0C43.11 0 37.4999 5.61222 37.4999 12.505C37.4999 5.61222 31.89 0 25 0V1.65071C30.98 1.65071 35.85 6.52257 35.85 12.505L33.61 12.505C33.61 7.75305 29.75 3.89151 25 3.89151V5.54222C28.84 5.54222 31.9599 8.66351 31.9599 12.505H29.72C29.72 9.90395 27.5999 7.78313 25 7.78313V9.43374C26.68 9.43374 28.06 10.8143 28.06 12.495Z" fill="#6127FF"/>
<path d="M28.06 37.495H25C25 44.3978 30.5999 50 37.4999 50C44.4 50 50 44.3978 50 37.495H46.94C46.94 35.8043 48.31 34.4337 50 34.4337V32.7831C47.4 32.7831 45.28 34.9039 45.28 37.505H43.04C43.04 33.6635 46.16 30.5422 50 30.5422V28.8915C45.25 28.8915 41.39 32.7531 41.39 37.505H39.15C39.15 31.5226 44.02 26.6507 50 26.6507V25C43.11 25 37.4999 30.6122 37.4999 37.505C37.4999 30.6122 31.89 25 25 25V26.6507C30.98 26.6507 35.85 31.5226 35.85 37.505H33.61C33.61 32.7531 29.75 28.8915 25 28.8915V30.5422C28.84 30.5422 31.9599 33.6635 31.9599 37.505H29.72C29.72 34.9039 27.5999 32.7831 25 32.7831V34.4337C26.68 34.4337 28.06 35.8143 28.06 37.495Z" fill="#6127FF"/>
<path d="M21.94 12.505H25C25 5.60224 19.4001 0 12.5001 0C5.60001 0 0 5.60224 0 12.505H3.06C3.06 14.1957 1.69001 15.5663 0 15.5663V17.2169C2.60001 17.2169 4.72001 15.0961 4.72001 12.495H6.96001C6.96001 16.3365 3.84001 19.4578 0 19.4578V21.1085C4.75001 21.1085 8.61002 17.2469 8.61002 12.495H10.85C10.85 18.4774 5.98001 23.3493 0 23.3493V25C6.89001 25 12.5001 19.3878 12.5001 12.495C12.5001 19.3878 18.11 25 25 25V23.3493C19.02 23.3493 14.15 18.4774 14.15 12.495H16.39C16.39 17.2469 20.25 21.1085 25 21.1085V19.4578C21.16 19.4578 18.0401 16.3365 18.0401 12.495H20.28C20.28 15.0961 22.4001 17.2169 25 17.2169V15.5663C23.32 15.5663 21.94 14.1857 21.94 12.505Z" fill="#6127FF"/>
<path d="M21.94 37.505H25C25 30.6022 19.4001 25 12.5001 25C5.60001 25 0 30.6022 0 37.505H3.06C3.06 39.1957 1.69001 40.5663 0 40.5663L0 42.2169C2.60001 42.2169 4.72001 40.0961 4.72001 37.495H6.96001C6.96001 41.3365 3.84001 44.4578 0 44.4578L0 46.1085C4.75001 46.1085 8.61002 42.2469 8.61002 37.495H10.85C10.85 43.4774 5.98001 48.3493 0 48.3493L0 50C6.89001 50 12.5001 44.3878 12.5001 37.495C12.5001 44.3878 18.11 50 25 50V48.3493C19.02 48.3493 14.15 43.4774 14.15 37.495H16.39C16.39 42.2469 20.25 46.1085 25 46.1085V44.4578C21.16 44.4578 18.0401 41.3365 18.0401 37.495H20.28C20.28 40.0961 22.4001 42.2169 25 42.2169V40.5663C23.32 40.5663 21.94 39.1857 21.94 37.505Z" fill="#6127FF"/>
</svg>
