<svg width="50" height="100" viewBox="0 0 50 100" fill="none" xmlns="http://www.w3.org/2000/svg">
<path d="M21.94 12.495H25C25 19.3978 19.4001 25 12.5001 25C5.60001 25 0 19.3978 0 12.495H3.06C3.06 10.8043 1.69001 9.43374 0 9.43374L0 7.78313C2.60001 7.78313 4.72001 9.90395 4.72001 12.505L6.96001 12.505C6.96001 8.66351 3.84001 5.54222 0 5.54222L0 3.89151C4.75001 3.89151 8.61002 7.75305 8.61002 12.505H10.85C10.85 6.52257 5.98001 1.65071 0 1.65071L0 0C6.89001 0 12.5001 5.61222 12.5001 12.505C12.5001 5.61222 18.11 0 25 0V1.65071C19.02 1.65071 14.15 6.52257 14.15 12.505L16.39 12.505C16.39 7.75305 20.25 3.89151 25 3.89151V5.54222C21.16 5.54222 18.0401 8.66351 18.0401 12.505H20.28C20.28 9.90395 22.4001 7.78313 25 7.78313V9.43374C23.32 9.43374 21.94 10.8143 21.94 12.495Z" fill="#6127FF"/>
<path d="M21.94 37.495H25C25 44.3978 19.4001 50 12.5001 50C5.60001 50 0 44.3978 0 37.495H3.06C3.06 35.8043 1.69001 34.4337 0 34.4337L0 32.7831C2.60001 32.7831 4.72001 34.9039 4.72001 37.505H6.96001C6.96001 33.6635 3.84001 30.5422 0 30.5422L0 28.8915C4.75001 28.8915 8.61002 32.7531 8.61002 37.505H10.85C10.85 31.5226 5.98001 26.6507 0 26.6507L0 25C6.89001 25 12.5001 30.6122 12.5001 37.505C12.5001 30.6122 18.11 25 25 25V26.6507C19.02 26.6507 14.15 31.5226 14.15 37.505H16.39C16.39 32.7531 20.25 28.8915 25 28.8915V30.5422C21.16 30.5422 18.0401 33.6635 18.0401 37.505H20.28C20.28 34.9039 22.4001 32.7831 25 32.7831V34.4337C23.32 34.4337 21.94 35.8143 21.94 37.495Z" fill="#6127FF"/>
<path d="M21.94 62.495H25C25 69.3978 19.4001 75 12.5001 75C5.60001 75 0 69.3978 0 62.495H3.06C3.06 60.8043 1.69001 59.4337 0 59.4337L0 57.7831C2.60001 57.7831 4.72001 59.9039 4.72001 62.505H6.96001C6.96001 58.6635 3.84001 55.5422 0 55.5422L0 53.8915C4.75001 53.8915 8.61002 57.7531 8.61002 62.505H10.85C10.85 56.5226 5.98001 51.6507 0 51.6507L0 50C6.89001 50 12.5001 55.6122 12.5001 62.505C12.5001 55.6122 18.11 50 25 50V51.6507C19.02 51.6507 14.15 56.5226 14.15 62.505H16.39C16.39 57.7531 20.25 53.8915 25 53.8915V55.5422C21.16 55.5422 18.0401 58.6635 18.0401 62.505H20.28C20.28 59.9039 22.4001 57.7831 25 57.7831V59.4337C23.32 59.4337 21.94 60.8143 21.94 62.495Z" fill="#6127FF"/>
<path d="M21.94 87.495H25C25 94.3978 19.4001 100 12.5001 100C5.60001 100 0 94.3978 0 87.495H3.06C3.06 85.8043 1.69001 84.4337 0 84.4337L0 82.7831C2.60001 82.7831 4.72001 84.9039 4.72001 87.505H6.96001C6.96001 83.6635 3.84001 80.5422 0 80.5422L0 78.8915C4.75001 78.8915 8.61002 82.7531 8.61002 87.505H10.85C10.85 81.5226 5.98001 76.6507 0 76.6507L0 75C6.89001 75 12.5001 80.6122 12.5001 87.505C12.5001 80.6122 18.11 75 25 75V76.6507C19.02 76.6507 14.15 81.5226 14.15 87.505H16.39C16.39 82.7531 20.25 78.8915 25 78.8915V80.5422C21.16 80.5422 18.0401 83.6635 18.0401 87.505H20.28C20.28 84.9039 22.4001 82.7831 25 82.7831V84.4337C23.32 84.4337 21.94 85.8143 21.94 87.495Z" fill="#6127FF"/>
<path d="M28.06 12.505H25C25 5.60224 30.5999 0 37.4999 0C44.4 0 50 5.60224 50 12.505H46.94C46.94 14.1957 48.31 15.5663 50 15.5663V17.2169C47.4 17.2169 45.28 15.0961 45.28 12.495H43.04C43.04 16.3365 46.16 19.4578 50 19.4578V21.1085C45.25 21.1085 41.39 17.2469 41.39 12.495H39.15C39.15 18.4774 44.02 23.3493 50 23.3493V25C43.11 25 37.4999 19.3878 37.4999 12.495C37.4999 19.3878 31.89 25 25 25V23.3493C30.98 23.3493 35.85 18.4774 35.85 12.495H33.61C33.61 17.2469 29.75 21.1085 25 21.1085V19.4578C28.84 19.4578 31.9599 16.3365 31.9599 12.495H29.72C29.72 15.0961 27.5999 17.2169 25 17.2169V15.5663C26.68 15.5663 28.06 14.1857 28.06 12.505Z" fill="#6127FF"/>
<path d="M28.06 37.505H25C25 30.6022 30.5999 25 37.4999 25C44.4 25 50 30.6022 50 37.505H46.94C46.94 39.1957 48.31 40.5663 50 40.5663V42.2169C47.4 42.2169 45.28 40.0961 45.28 37.495H43.04C43.04 41.3365 46.16 44.4578 50 44.4578V46.1085C45.25 46.1085 41.39 42.2469 41.39 37.495H39.15C39.15 43.4774 44.02 48.3493 50 48.3493V50C43.11 50 37.4999 44.3878 37.4999 37.495C37.4999 44.3878 31.89 50 25 50V48.3493C30.98 48.3493 35.85 43.4774 35.85 37.495H33.61C33.61 42.2469 29.75 46.1085 25 46.1085V44.4578C28.84 44.4578 31.9599 41.3365 31.9599 37.495H29.72C29.72 40.0961 27.5999 42.2169 25 42.2169V40.5663C26.68 40.5663 28.06 39.1857 28.06 37.505Z" fill="#6127FF"/>
<path d="M28.06 62.505H25C25 55.6022 30.5999 50 37.4999 50C44.4 50 50 55.6022 50 62.505H46.94C46.94 64.1957 48.31 65.5663 50 65.5663V67.2169C47.4 67.2169 45.28 65.0961 45.28 62.495H43.04C43.04 66.3365 46.16 69.4578 50 69.4578V71.1085C45.25 71.1085 41.39 67.2469 41.39 62.495H39.15C39.15 68.4774 44.02 73.3493 50 73.3493V75C43.11 75 37.4999 69.3878 37.4999 62.495C37.4999 69.3878 31.89 75 25 75V73.3493C30.98 73.3493 35.85 68.4774 35.85 62.495H33.61C33.61 67.2469 29.75 71.1085 25 71.1085V69.4578C28.84 69.4578 31.9599 66.3365 31.9599 62.495H29.72C29.72 65.0961 27.5999 67.2169 25 67.2169V65.5663C26.68 65.5663 28.06 64.1857 28.06 62.505Z" fill="#6127FF"/>
<path d="M28.06 87.505H25C25 80.6022 30.5999 75 37.4999 75C44.4 75 50 80.6022 50 87.505H46.94C46.94 89.1957 48.31 90.5663 50 90.5663V92.2169C47.4 92.2169 45.28 90.0961 45.28 87.495H43.04C43.04 91.3365 46.16 94.4578 50 94.4578V96.1085C45.25 96.1085 41.39 92.2469 41.39 87.495H39.15C39.15 93.4774 44.02 98.3493 50 98.3493V100C43.11 100 37.4999 94.3878 37.4999 87.495C37.4999 94.3878 31.89 100 25 100V98.3493C30.98 98.3493 35.85 93.4774 35.85 87.495H33.61C33.61 92.2469 29.75 96.1085 25 96.1085V94.4578C28.84 94.4578 31.9599 91.3365 31.9599 87.495H29.72C29.72 90.0961 27.5999 92.2169 25 92.2169V90.5663C26.68 90.5663 28.06 89.1857 28.06 87.505Z" fill="#6127FF"/>
</svg>
